# xmcd CD database file
#
# Track frame offsets:
#	150
#	19546
#	41506
#	62066
#	81157
#	107903
#	127283
#	156473
#	178281
#	194107
#
# Disc length: 3045 seconds
#
# Revision: 0
# Processed by: cddbd v1.5.1PL0 Copyright (c) Steve Scherf et al.
# Submitted via: CDex 1.51
#
DISCID=940be30a
DTITLE=Michael Paulo - Beautiful
DYEAR=2004
DGENRE=Jazz
TTITLE0=Feelin Alright
TTITLE1=When Time Stood Out
TTITLE2=Springtime Dreams
TTITLE3=Beautiful
TTITLE4=Hawaiian Sunshine
TTITLE5=Lean On Me
TTITLE6=Tell Me Why
TTITLE7=City
TTITLE8=Bachman
TTITLE9=Feel Like Makin Love
EXTD=YEAR: 2004
EXTT0=
EXTT1=
EXTT2=
EXTT3=
EXTT4=
EXTT5=
EXTT6=
EXTT7=
EXTT8=
EXTT9=
PLAYORDER=
